<?xml version="1.0" encoding="iso-8859-1"?>
<!-- Generator: Adobe Illustrator 16.0.0, SVG Export Plug-In . SVG Version: 6.00 Build 0)  -->
<!DOCTYPE svg PUBLIC "-//W3C//DTD SVG 1.1//EN" "http://www.w3.org/Graphics/SVG/1.1/DTD/svg11.dtd">
<svg xmlns="http://www.w3.org/2000/svg" xmlns:xlink="http://www.w3.org/1999/xlink" version="1.1" id="Capa_1" x="0px" y="0px" width="512px" height="512px" viewBox="0 0 197.978 197.978" style="enable-background:new 0 0 197.978 197.978;" xml:space="preserve">
<g>
	<g>
		<circle cx="167.449" cy="134.378" r="15.414" fill="#4CB648"/>
		<path d="M197.784,152.256c-0.803-2.997-3.856-4.772-6.867-3.963l-37.319,10.004l-5.855-12.034    c1.222-1.794,1.932-3.956,1.932-6.281c0-6.188-5.018-11.207-11.206-11.207H67.245c-2.825,0-5.375,1.078-7.347,2.802H8.404    c-4.641,0-8.404,3.765-8.404,8.405s3.764,8.404,8.404,8.404h51.494c1.973,1.724,4.522,2.802,7.347,2.802h70.43l7.862,16.177    c0.958,1.963,2.938,3.152,5.04,3.152l1.45-0.191l41.789-11.209C196.81,158.317,198.589,155.243,197.784,152.256z" fill="#4CB648"/>
		<path d="M69.02,125.798c0.75,0.115,1.492,0.176,2.22,0.176c6.763,0,12.725-4.915,13.816-11.804l3.196-20.03l33.362,29.043    c1.059,0.924,2.37,1.381,3.674,1.381c1.563,0,3.123-0.653,4.223-1.934c2.035-2.331,1.795-5.865-0.547-7.896L90.322,81.103    l0.343-2.12c1.222-7.643-3.989-14.827-11.626-16.037c-7.676-1.22-14.826,3.995-16.038,11.628l-5.603,35.184    C56.172,117.404,61.385,124.583,69.02,125.798z" fill="#4CB648"/>
		<circle cx="84.867" cy="44.243" r="16.782" fill="#4CB648"/>
	</g>
</g>
<g>
</g>
<g>
</g>
<g>
</g>
<g>
</g>
<g>
</g>
<g>
</g>
<g>
</g>
<g>
</g>
<g>
</g>
<g>
</g>
<g>
</g>
<g>
</g>
<g>
</g>
<g>
</g>
<g>
</g>
</svg>
