<?xml version="1.0" encoding="iso-8859-1"?>
<!-- Generator: Adobe Illustrator 18.0.0, SVG Export Plug-In . SVG Version: 6.00 Build 0)  -->
<!DOCTYPE svg PUBLIC "-//W3C//DTD SVG 1.1//EN" "http://www.w3.org/Graphics/SVG/1.1/DTD/svg11.dtd">
<svg xmlns="http://www.w3.org/2000/svg" xmlns:xlink="http://www.w3.org/1999/xlink" version="1.1" id="Capa_1" x="0px" y="0px" viewBox="0 0 459.796 459.796" style="enable-background:new 0 0 459.796 459.796;" xml:space="preserve" width="512px" height="512px">
<g id="XMLID_270_">
	<path id="XMLID_276_" d="M256.619,236.777l-38.053-25.137c9.884-9.751,9.792-9.66,27.316-26.949l-25.681-54.261l45.741,54.222   c3.997,4.737,10.16,7.275,16.491,6.546l74.518-8.549c10.3-1.182,17.693-10.491,16.512-20.791   c-1.181-10.301-10.475-17.693-20.792-16.512l-64.518,7.402l-39.252-46.53l37.983,26.622c0.078-6.99-2.443-14.013-7.601-19.494   l-33.434-35.529c-5.293-5.625-12.676-8.813-20.4-8.809c-7.724,0.004-15.103,3.2-20.391,8.83l-80.205,85.409   c-12.744,13.571-9.889,35.279,5.593,45.217l12.381,7.948l-29.83-0.033c-8.687,0-15.73,7.043-15.73,15.73   c0,8.687,7.042,15.73,15.73,15.73h21.267l-14.219,27.006c-8.224-2.353-16.904-3.615-25.874-3.615C42.244,271.229,0,313.474,0,365.4   c0,51.926,42.244,94.171,94.17,94.171c41.025,0,76-26.372,88.88-63.051c-5.197-0.668-10.009-2.26-14.516-4.764   c-19.572-10.875-26.572-35.668-15.751-55.143c8.671-15.607,3.859-6.945,28.55-51.383l-7.243-17.467h14.989h0.465l-42.46-48.62   c47.483,30.48,32.157,20.52,67.291,43.729l-45.836,82.494c-6.043,10.876-2.125,24.592,8.751,30.635   c10.881,6.045,24.595,2.12,30.635-8.751l55.971-100.734C269.613,256.226,266.443,243.266,256.619,236.777z M139.27,282.752   l10.422-19.794l18.225,43.95C160.099,297.071,150.36,288.828,139.27,282.752z" fill="#4CB648"/>
	<path id="XMLID_275_" d="M269.242,50.598c-1.513,11.86,2.091,24.278,10.924,33.665c15.683,16.666,41.908,17.463,58.575,1.78   c3.563-3.353,6.395-7.191,8.502-11.312c-1.047-0.244-2.085-0.529-3.102-0.903c-15.959-5.869-32.756-10.723-47.576-15.006   C286.486,55.91,277.363,53.273,269.242,50.598z" fill="#4CB648"/>
	<path id="XMLID_274_" d="M351.284,54.405c0.604,0.222,1.236,0.332,1.865,0.332c0.928,0,1.851-0.239,2.676-0.711   c1.383-0.791,2.345-2.154,2.628-3.722c1.593-8.85,2.502-18.95-2.121-26.431C346.214,7.499,332.32,0.225,307.274,0.225   c-4.733,0-9.865,0.26-15.444,0.767c-3.505,0.319-6.946,0.432-10.274,0.432c-8.188,0-15.686-0.686-21.747-0.686   c-7.495,0-12.793,1.049-14.474,5.74C237.883,27.273,296.31,34.187,351.284,54.405z" fill="#4CB648"/>
	<path id="XMLID_271_" d="M365.626,271.229c-6.752,0-13.339,0.721-19.692,2.078l-22.561-67.909l-21.007,2.41l6.149,18.508   l-33.601,2.773c4.149,4.806,7.138,10.554,8.678,16.849c0.256,1.045,0.459,2.096,0.631,3.149l12.354-1.02l-12.255,13.412   c-0.706,4.793-2.267,9.463-4.673,13.791l-31.188,56.13l69.645-76.215l8.192,24.659c-32.341,14.926-54.843,47.66-54.843,85.555   c0,51.926,42.245,94.171,94.171,94.171c51.925,0,94.17-42.245,94.17-94.171C459.796,313.474,417.551,271.229,365.626,271.229z    M365.626,434.504c-38.103,0-69.104-31-69.104-69.104c0-26.819,15.368-50.102,37.751-61.55l21.533,64.813   c1.442,4.341,5.482,7.088,9.818,7.088c1.082,0,2.182-0.171,3.265-0.531c5.422-1.802,8.359-7.659,6.557-13.082l-21.537-64.827   c3.811-0.654,7.722-1.014,11.717-1.014c38.104,0,69.103,31,69.103,69.103C434.729,403.504,403.73,434.504,365.626,434.504z" fill="#4CB648"/>
</g>
<g>
</g>
<g>
</g>
<g>
</g>
<g>
</g>
<g>
</g>
<g>
</g>
<g>
</g>
<g>
</g>
<g>
</g>
<g>
</g>
<g>
</g>
<g>
</g>
<g>
</g>
<g>
</g>
<g>
</g>
</svg>
